<svg xmlns="http://www.w3.org/2000/svg" viewBox="0 0 512 512" role="img" aria-labelledby="title desc">
  <title id="title">NetCoreApplicationTemplate repository icon</title>
  <desc id="desc">Original blueprint shield icon representing a secure, extensible ASP.NET Core application template baseline.</desc>
  <defs>
    <linearGradient id="bg" x1="0" y1="0" x2="1" y2="1">
      <stop offset="0" stop-color="#081024"/>
      <stop offset="0.62" stop-color="#1f3a5c"/>
      <stop offset="1" stop-color="#3b1d60"/>
    </linearGradient>
    <filter id="shadow" x="-20%" y="-20%" width="140%" height="140%">
      <feDropShadow dx="7" dy="9" stdDeviation="8" flood-color="#000000" flood-opacity=".35"/>
    </filter>
  </defs>
  <rect x="20" y="20" width="472" height="472" rx="72" fill="url(#bg)"/>
  <rect x="20" y="20" width="472" height="472" rx="72" fill="none" stroke="#58c3eb" stroke-opacity=".55" stroke-width="4"/>
  <rect x="35" y="35" width="442" height="442" rx="58" fill="none" stroke="#ffffff" stroke-opacity=".10" stroke-width="2"/>
  <g stroke="#88cfeb" stroke-opacity=".14" stroke-width="1">
    <path d="M72 52v408M110 52v408M148 52v408M186 52v408M224 52v408M262 52v408M300 52v408M338 52v408M376 52v408M414 52v408"/>
    <path d="M52 72h408M52 110h408M52 148h408M52 186h408M52 224h408M52 262h408M52 300h408M52 338h408M52 376h408M52 414h408"/>
  </g>
  <g fill="none" stroke="#95e7ff" stroke-opacity=".68" stroke-width="10" stroke-linecap="round" stroke-linejoin="round">
    <path d="M96 132H66v66h30"/>
    <path d="M416 132h30v66h-30"/>
    <path d="M96 380H66v-66h30"/>
    <path d="M416 380h30v-66h-30"/>
  </g>
  <g filter="url(#shadow)">
    <path d="M256 93l127 61-25 193-102 82-102-82-25-193 127-61z" fill="#142d4c"/>
    <path d="M256 93l127 61-25 193-102 82-102-82-25-193 127-61z" fill="none" stroke="#57cbef" stroke-width="6" stroke-linejoin="round"/>
    <path d="M256 112l103 52-21 171-82 65-82-65-21-171 103-52z" fill="none" stroke="#ffffff" stroke-opacity=".20" stroke-width="2"/>
  </g>
  <path d="M256 148v196" fill="none" stroke="#a5ebff" stroke-width="8" stroke-linecap="round"/>
  <g fill="#091222" stroke="#8cecff" stroke-width="4">
    <circle cx="256" cy="154" r="10"/>
    <circle cx="256" cy="205" r="10"/>
    <circle cx="256" cy="256" r="10"/>
    <circle cx="256" cy="307" r="10"/>
    <circle cx="256" cy="342" r="10"/>
  </g>
  <g fill="#2b5682" fill-opacity=".9" stroke="#7be5ff" stroke-opacity=".75" stroke-width="3">
    <rect x="185" y="193" width="142" height="12" rx="6"/>
    <rect x="176" y="244" width="160" height="12" rx="6"/>
    <rect x="195" y="295" width="122" height="12" rx="6"/>
  </g>
  <g fill="none" stroke="#e8f7ff" stroke-width="11" stroke-linecap="round" stroke-linejoin="round">
    <path d="M205 224l-24 32 24 32"/>
    <path d="M307 224l24 32-24 32"/>
  </g>
  <circle cx="256" cy="256" r="24" fill="#091222" stroke="#a7f3d0" stroke-width="5"/>
  <circle cx="256" cy="256" r="9" fill="#a7f3d0"/>
  <g fill="#6c5ce7" stroke="#cedcff" stroke-opacity=".65" stroke-width="2">
    <rect x="184" y="344" width="56" height="22" rx="8"/>
    <rect x="246" y="344" width="56" height="22" rx="8"/>
    <rect x="215" y="374" width="82" height="22" rx="8"/>
  </g>
</svg>
